<?xml version="1.0" encoding="utf-8"?>
<!-- Generator: Adobe Illustrator 22.0.0, SVG Export Plug-In . SVG Version: 6.00 Build 0)  -->
<svg version="1.1" id="图层_1" xmlns="http://www.w3.org/2000/svg" xmlns:xlink="http://www.w3.org/1999/xlink" x="0px" y="0px"
	 viewBox="0 0 127.2 138.8" style="enable-background:new 0 0 127.2 138.8;" xml:space="preserve">
<style type="text/css">
	.st0{fill:#39C2FF;}
	.st1{fill:#00A4FF;}
	.st2{fill:#148DF2;}
	.st3{fill:#FFFFFF;}
</style>
<path class="st0" d="M115.3,126.2H11.7c-6.2,0-11.2-5-11.2-11.2V11.4c0-6.2,5-11.2,11.2-11.2h103.6c6.2,0,11.2,5,11.2,11.2V115
	C126.5,121.2,121.5,126.2,115.3,126.2z"/>
<path class="st1" d="M92.3,126.2H34.7c-18.9,0-34.2-15.3-34.2-34.2V34.5c0-18.9,15.3-34.2,34.2-34.2h57.5
	c18.9,0,34.2,15.3,34.2,34.2V92C126.5,110.9,111.2,126.2,92.3,126.2z"/>
<circle class="st2" cx="63.5" cy="63.2" r="63"/>
<g>
	<path class="st3" d="M65.4-8.5c4.4,0,6.5,2.1,6.5,6.2v33c2.4-1.5,5-2.9,7.9-4.2c2.9-1.3,6.6-1.9,11-1.9c4.1,0,8,0.8,11.6,2.4
		c3.6,1.6,6.9,4.3,9.6,8.1c2.8,3.8,4.9,8.9,6.5,15.1c1.6,6.2,2.4,14,2.4,23.3c0,8.5-0.7,15.7-2.2,21.6c-1.5,5.9-3.9,10.8-7.1,14.6
		c-3.3,3.8-7.6,6.6-12.8,8.3c-5.2,1.7-11.6,2.6-19,2.6c-7.8,0-14.5-0.7-20.3-2c-5.8-1.4-9.8-2.6-12.2-3.8c-1.3-0.6-2.4-1.5-3.4-2.6
		c-1-1.2-1.5-3.1-1.5-5.6V-8.5H65.4z M71.9,98.1c2.2,0.4,4.5,0.5,6.7,0.5c2.2,0,4.1-0.2,5.7-0.7c1.6-0.5,2.9-1.6,3.9-3.4
		c1-1.8,1.7-4.3,2.2-7.7c0.5-3.4,0.7-8,0.7-13.9c0-5.3-0.2-9.6-0.6-13.1c-0.4-3.4-1.1-6.1-2-8.1c-0.9-2-2.1-3.4-3.6-4.1
		c-1.5-0.8-3.3-1.1-5.6-1.1c-2.7,0-5.2,0.6-7.4,1.8V98.1z"/>
</g>
</svg>
