<?xml version="1.0" encoding="iso-8859-1"?>
<!-- Generator: Adobe Illustrator 19.0.0, SVG Export Plug-In . SVG Version: 6.00 Build 0)  -->
<svg xmlns="http://www.w3.org/2000/svg" xmlns:xlink="http://www.w3.org/1999/xlink" version="1.1" id="Capa_1" x="0px" y="0px" viewBox="0 0 512 512" style="enable-background:new 0 0 512 512;" xml:space="preserve" width="512px" height="512px">
<g>
	<g>
		<path d="M256,0C114.507,0,0,114.497,0,256c0,141.314,114.322,256,256,256c141.493,0,256-114.497,256-256    C512,114.508,397.503,0,256,0z M424.579,120.937c-35.195-7.379-71.655-10.292-109.106-8.344    c-19.324-26.495-41.845-50.835-67.238-72.441C319.019,37.666,382.72,68.895,424.579,120.937z M194.273,48.914    c28.117,19.756,53.075,42.915,74.461,68.724c-87.456,14.442-166.6,56.4-227.735,117.448    C49.548,145.525,112.548,73.153,194.273,48.914z M344.488,453.159C317.023,465.499,287.013,472,256,472    c-107.583,0-195.852-78.263-212.955-179.59c60.989-74.925,150.626-126.895,252.542-138.095    C353.084,243.602,369.951,352.069,344.488,453.159z M391.052,424.588c14.525-94.1-3.051-190.06-50.075-272.558    c38.743,0.297,76.813,6.369,113.332,18.099C465.899,196.88,472,225.969,472,256C472,321.844,442.654,383.088,391.052,424.588z" fill="#00796b"/>
	</g>
</g>
<g>
</g>
<g>
</g>
<g>
</g>
<g>
</g>
<g>
</g>
<g>
</g>
<g>
</g>
<g>
</g>
<g>
</g>
<g>
</g>
<g>
</g>
<g>
</g>
<g>
</g>
<g>
</g>
<g>
</g>
</svg>
